<?xml version="1.0" encoding="UTF-8"?>
<svg id="Capa_1" data-name="Capa 1" xmlns="http://www.w3.org/2000/svg" viewBox="0 0 1166.95 309.49">
  <defs>
    <style>
      .cls-1 {
        fill: #4156a1;
      }

      .cls-2 {
        fill: #343136;
      }

      .cls-3 {
        fill: #4565ac;
      }
    </style>
  </defs>
  <g>
    <path class="cls-2" d="m404.22,195.54v14.65h-61.09v-78.9h59.63v14.65h-41.48v17.13h36.63v14.2h-36.63v18.26h42.94Z"/>
    <path class="cls-2" d="m513.1,210.19l-.11-47.34-23.22,39h-8.23l-23.11-37.98v46.33h-17.13v-78.9h15.1l29.53,49.03,29.08-49.03h14.99l.23,78.9h-17.13Z"/>
    <path class="cls-2" d="m587.43,206.31c-6.5-3.49-11.61-8.34-15.33-14.54-3.72-6.2-5.58-13.21-5.58-21.02s1.86-14.82,5.58-21.02c3.72-6.2,8.83-11.05,15.33-14.54,6.5-3.49,13.81-5.24,21.92-5.24,6.84,0,13.02,1.2,18.54,3.61,5.52,2.41,10.16,5.86,13.92,10.37l-11.72,10.82c-5.34-6.16-11.95-9.24-19.84-9.24-4.89,0-9.24,1.07-13.08,3.21-3.83,2.14-6.82,5.13-8.96,8.96-2.14,3.83-3.21,8.19-3.21,13.08s1.07,9.24,3.21,13.07c2.14,3.83,5.13,6.82,8.96,8.96,3.83,2.14,8.19,3.21,13.08,3.21,7.89,0,14.5-3.12,19.84-9.35l11.72,10.82c-3.76,4.58-8.42,8.08-13.98,10.48-5.56,2.4-11.76,3.61-18.6,3.61-8.04,0-15.31-1.75-21.81-5.24Z"/>
    <path class="cls-2" d="m691.01,206.25c-6.58-3.53-11.72-8.4-15.44-14.6-3.72-6.2-5.58-13.17-5.58-20.91s1.86-14.71,5.58-20.91c3.72-6.2,8.87-11.06,15.44-14.6,6.57-3.53,13.96-5.3,22.15-5.3s15.55,1.77,22.09,5.3c6.54,3.53,11.68,8.4,15.44,14.6,3.76,6.2,5.63,13.17,5.63,20.91s-1.88,14.71-5.63,20.91c-3.76,6.2-8.91,11.07-15.44,14.6-6.54,3.53-13.9,5.3-22.09,5.3s-15.57-1.76-22.15-5.3Zm34.77-13.47c3.76-2.14,6.71-5.13,8.85-8.96,2.14-3.83,3.21-8.19,3.21-13.07s-1.07-9.24-3.21-13.08c-2.14-3.83-5.09-6.82-8.85-8.96-3.76-2.14-7.97-3.21-12.62-3.21s-8.87,1.07-12.62,3.21c-3.76,2.14-6.71,5.13-8.85,8.96-2.14,3.83-3.21,8.19-3.21,13.08s1.07,9.24,3.21,13.07c2.14,3.83,5.09,6.82,8.85,8.96,3.76,2.14,7.96,3.21,12.62,3.21s8.87-1.07,12.62-3.21Z"/>
    <path class="cls-2" d="m800.01,209.8c-6.2-1.47-11.29-3.44-15.27-5.92l8.57-19.39c3.76,2.18,7.96,3.93,12.62,5.24,4.66,1.32,9.13,1.97,13.41,1.97,3.68,0,6.31-.36,7.89-1.07,1.58-.71,2.37-1.78,2.37-3.21,0-1.65-1.03-2.89-3.1-3.72-2.07-.83-5.47-1.73-10.2-2.71-6.09-1.28-11.16-2.65-15.22-4.11s-7.59-3.87-10.59-7.21c-3.01-3.34-4.51-7.87-4.51-13.58,0-4.96,1.39-9.47,4.17-13.53,2.78-4.06,6.93-7.25,12.45-9.58,5.52-2.33,12.23-3.49,20.12-3.49,5.41,0,10.73.58,15.95,1.75,5.22,1.17,9.82,2.87,13.81,5.13l-8,19.27c-7.74-3.91-15.07-5.86-21.98-5.86s-10.26,1.65-10.26,4.96c0,1.58,1.01,2.76,3.04,3.55,2.03.79,5.37,1.63,10.03,2.54,6.01,1.13,11.08,2.42,15.22,3.89,4.13,1.47,7.72,3.85,10.76,7.16,3.04,3.31,4.56,7.82,4.56,13.53,0,4.96-1.39,9.45-4.17,13.47-2.78,4.02-6.93,7.21-12.45,9.58-5.52,2.37-12.23,3.55-20.12,3.55-6.54,0-12.91-.73-19.1-2.2Z"/>
    <path class="cls-2" d="m904.78,206.7c-6.76-3.53-12.06-8.43-15.89-14.71-3.83-6.27-5.75-13.36-5.75-21.25s1.92-14.97,5.75-21.25c3.83-6.27,9.13-11.18,15.89-14.71,6.76-3.53,14.39-5.3,22.88-5.3s16.12,1.77,22.88,5.3c6.76,3.53,12.06,8.44,15.89,14.71,3.83,6.28,5.75,13.36,5.75,21.25s-1.92,14.97-5.75,21.25c-3.83,6.27-9.13,11.18-15.89,14.71s-14.39,5.3-22.88,5.3-16.12-1.77-22.88-5.3Zm31.84-18.65c2.67-1.61,4.79-3.91,6.37-6.88,1.58-2.97,2.37-6.44,2.37-10.43s-.79-7.46-2.37-10.43c-1.58-2.97-3.7-5.26-6.37-6.88-2.67-1.62-5.66-2.42-8.96-2.42s-6.29.81-8.96,2.42c-2.67,1.62-4.79,3.91-6.37,6.88-1.58,2.97-2.37,6.44-2.37,10.43s.79,7.46,2.37,10.43c1.58,2.97,3.7,5.26,6.37,6.88,2.67,1.62,5.65,2.42,8.96,2.42s6.29-.81,8.96-2.42Z"/>
    <path class="cls-2" d="m1031.01,151.36v13.53h32.91v20.06h-32.91v25.25h-26.6v-78.9h64.13v20.06h-37.53Z"/>
    <path class="cls-2" d="m1117.24,151.92h-23.11v-20.63h72.81v20.63h-23.11v58.27h-26.6v-58.27Z"/>
  </g>
  <g>
    <path id="Background" class="cls-3" d="m233.98,92.2c-15.33-12.45-32.46-18.77-50.91-18.77-11.86,0-23.66,2.69-33.77,7-11.85,5.05-25.15,5.06-37,0-10.11-4.31-21.91-7-33.77-7-18.45,0-35.57,6.32-50.9,18.77-33.84,27.49-36.88,75.73-7.58,120.04,11.66,17.65,30.79,37.48,54.7,57.48.96.81,2.33.94,3.42.32,27.22-15.57,57.52-39.46,73.81-55.87,1.29-1.3,1.09-3.45-.41-4.51l-16.84-11.86c-5.05-3.56-11.81-3.47-16.78.21-9.28,6.86-20.22,13.87-31.68,20.4-1.16.66-2.64.46-3.59-.48-11.68-11.61-19.83-21.3-25.67-30.12-12.38-18.72-16.6-42.66.33-59.43,16.47-16.33,39.34-11.69,55.89-2.16,10.88,6.26,24.24,6.26,35.13,0,16.55-9.52,39.42-14.16,55.88,2.16,16.93,16.78,12.48,40.57.33,59.43-16.15,25.08-53.36,61.65-107.82,94.59-1.8,1.09-1.96,3.65-.27,4.91,10.29,7.71,20.85,14.94,31.25,21.32,1.87,1.15,4.24,1.15,6.11,0,42.82-26.27,88.13-66.79,107.69-96.38,29.3-44.31,26.25-92.55-7.57-120.04Z"/>
    <path id="Dot" class="cls-3" d="m166.42,35.62c0,18.3-13.8,33.37-31.55,35.38-1.33.17-2.69.24-4.07.24-19.67,0-35.62-15.95-35.62-35.62S111.13,0,130.8,0c1.38,0,2.72.07,4.05.24,17.77,2.01,31.56,17.08,31.56,35.38Z"/>
    <path class="cls-1" d="m134.87,71c-2.67-11.36-4.07-23.2-4.07-35.38s1.4-24.01,4.05-35.38c17.77,2.01,31.56,17.08,31.56,35.38s-13.8,33.37-31.55,35.38Z"/>
    <path class="cls-1" d="m254.57,187.21c-14.96-3.04-29.14-8.22-42.2-15.24,5.22-15.16,4.31-31.28-8.12-43.6-13.73-13.6-31.89-12.64-47.14-6.43-7.91-11.73-14.26-24.6-18.71-38.33,3.71-.6,7.38-1.66,10.9-3.17,10.12-4.31,21.91-7.01,33.77-7.01,18.45,0,35.58,6.32,50.91,18.77,27.52,22.37,34.66,58.47,20.59,95.01Z"/>
  </g>
</svg>