<?xml version="1.0" encoding="utf-8"?>
<svg viewBox="0 0 500 500" xmlns="http://www.w3.org/2000/svg">
  <path d="M 340.467 182.092 C 325.137 169.642 308.007 163.322 289.557 163.322 C 277.697 163.322 265.897 166.012 255.787 170.322 C 243.937 175.372 230.637 175.382 218.787 170.322 C 208.677 166.012 196.877 163.322 185.017 163.322 C 166.567 163.322 149.447 169.642 134.117 182.092 C 100.277 209.582 97.237 257.822 126.537 302.132 C 138.197 319.782 157.327 339.612 181.237 359.612 C 182.197 360.422 183.567 360.552 184.657 359.932 C 211.877 344.362 242.177 320.472 258.467 304.062 C 259.757 302.762 259.557 300.612 258.057 299.552 L 241.217 287.692 C 236.165 284.135 229.4 284.22 224.437 287.902 C 215.157 294.762 204.217 301.772 192.757 308.302 C 191.597 308.962 190.117 308.762 189.167 307.822 C 177.487 296.212 169.337 286.522 163.497 277.702 C 151.117 258.982 146.897 235.042 163.827 218.272 C 180.297 201.942 203.167 206.582 219.717 216.112 C 230.591 222.372 243.974 222.372 254.847 216.112 C 271.397 206.592 294.267 201.952 310.727 218.272 C 327.657 235.052 323.207 258.842 311.057 277.702 C 294.907 302.782 257.697 339.352 203.237 372.292 C 201.437 373.382 201.277 375.942 202.967 377.202 C 213.257 384.912 223.817 392.142 234.217 398.522 C 236.092 399.672 238.453 399.672 240.327 398.522 C 283.147 372.252 328.457 331.732 348.017 302.142 C 377.317 257.832 374.267 209.592 340.447 182.102 L 340.467 182.092 Z M 272.907 125.512 C 272.907 143.812 259.107 158.882 241.357 160.892 C 240.027 161.062 238.667 161.132 237.287 161.132 C 217.617 161.132 201.667 145.182 201.667 125.512 C 201.667 105.842 217.617 89.892 237.287 89.892 C 238.667 89.892 240.007 89.962 241.337 90.132 C 259.107 92.142 272.897 107.212 272.897 125.512 L 272.907 125.512 Z" class="cls-3" fill="#4565AC"/>
  <path d="M 241.357 160.892 C 238.687 149.532 237.287 137.692 237.287 125.512 C 237.287 113.332 238.687 101.502 241.337 90.132 C 259.107 92.142 272.897 107.212 272.897 125.512 C 272.897 143.812 259.097 158.882 241.347 160.892 L 241.357 160.892 Z M 361.057 277.102 C 346.321 274.114 332.103 268.979 318.857 261.862 C 324.077 246.702 323.167 230.582 310.737 218.262 C 297.007 204.662 278.847 205.622 263.597 211.832 C 255.687 200.102 249.337 187.232 244.887 173.502 C 248.597 172.902 252.267 171.842 255.787 170.332 C 265.907 166.022 277.697 163.322 289.557 163.322 C 308.007 163.322 325.137 169.642 340.467 182.092 C 367.987 204.462 375.127 240.562 361.057 277.102 Z" class="cls-1" fill="#4156A1"/>
</svg>