<?xml version="1.0" encoding="UTF-8"?>
<svg id="Capa_1" data-name="Capa 1" xmlns="http://www.w3.org/2000/svg" viewBox="0 0 983.61 266.74">
  <defs>
    <style>
      .cls-1 {
        fill: #f4b201;
      }

      .cls-2 {
        fill: #f4af06;
      }

      .cls-3 {
        fill: #f7b600;
      }

      .cls-4 {
        fill: #f8c600;
      }

      .cls-5 {
        fill: #006eb7;
      }

      .cls-6 {
        fill: #008d39;
      }

      .cls-7 {
        fill: #0084c9;
      }

      .cls-8 {
        fill: #eca820;
      }

      .cls-9 {
        fill: #f1a317;
      }

      .cls-10 {
        fill: #ffe003;
      }

      .cls-11 {
        fill: #f6bd07;
      }

      .cls-12 {
        fill: #fdcc00;
      }

      .cls-13 {
        fill: #ffe700;
      }

      .cls-14 {
        fill: #f2b419;
      }

      .cls-15 {
        fill: #ee9020;
      }

      .cls-16 {
        fill: #e85d23;
      }

      .cls-17 {
        fill: #673188;
      }

      .cls-18 {
        fill: #00a2e1;
      }

      .cls-19 {
        fill: #009c3d;
      }

      .cls-20 {
        fill: #b1c41a;
      }

      .cls-21 {
        fill: #a6c71e;
      }

      .cls-22 {
        fill: #a8378b;
      }

      .cls-23 {
        fill: #ccd400;
      }

      .cls-24 {
        fill: #e12020;
      }

      .cls-25 {
        fill: #e4175a;
      }

      .cls-26 {
        fill: #d92170;
      }

      .cls-27 {
        fill: #2353a0;
      }

      .cls-28 {
        fill: #402e87;
      }

      .cls-29 {
        fill: #34a836;
      }

      .cls-30 {
        fill: #9d2f88;
      }

      .cls-31 {
        fill: #6f6f6e;
      }

      .cls-32 {
        fill: #8a2e87;
      }

      .cls-33 {
        fill: #75b630;
      }

      .cls-34 {
        fill: #623188;
      }
    </style>
  </defs>
  <g>
    <path class="cls-9" d="m178.38,0l44.66,44.67,18.49-18.45C225.39,10.02,203.06,0,178.38,0Z"/>
    <polygon class="cls-1" points="223.04 44.67 178.38 0 178.38 89.18 178.38 89.19 223.04 44.67"/>
    <path class="cls-11" d="m241.53,26.22l-18.49,18.45,44.52,44.52c0-24.58-9.93-46.83-26.03-62.97Z"/>
    <polygon class="cls-4" points="267.56 89.19 223.04 44.67 178.38 89.19 178.38 89.19 178.38 89.19 178.38 89.19 267.56 89.19"/>
    <path class="cls-22" d="m26.18,26.07C10,42.22,0,64.53,0,89.19h0l44.63-44.63-18.45-18.49Z"/>
    <polygon class="cls-32" points="44.63 44.56 0 89.19 89.19 89.19 44.63 44.56"/>
    <path class="cls-25" d="m26.18,26.07l18.45,18.49L89.19,0c-24.6,0-46.87,9.96-63.01,26.07Z"/>
    <polygon class="cls-26" points="89.19 0 44.63 44.56 89.19 89.19 89.19 89.19 89.19 0"/>
    <polygon class="cls-11" points="178.38 0 89.19 0 133.78 44.59 178.38 0"/>
    <polygon class="cls-24" points="133.78 44.59 89.19 0 89.19 89.19 89.19 89.19 133.78 44.59"/>
    <polygon class="cls-16" points="178.38 0 133.78 44.59 178.38 89.18 178.38 0"/>
    <polygon class="cls-15" points="178.38 89.18 133.78 44.59 89.19 89.19 178.38 89.19 178.38 89.18"/>
    <path class="cls-7" d="m178.38,88.37l44.66,44.67,18.49-18.45c-16.14-16.2-38.48-26.22-63.15-26.22Z"/>
    <polygon class="cls-18" points="223.04 133.03 178.38 88.37 178.38 177.55 178.38 177.55 223.04 133.03"/>
    <path class="cls-12" d="m241.53,114.59l-18.49,18.45,44.52,44.52c0-24.58-9.93-46.83-26.03-62.96Z"/>
    <polygon class="cls-3" points="267.56 177.55 223.04 133.03 178.38 177.55 178.38 177.55 178.38 177.55 178.38 177.55 267.56 177.55"/>
    <polygon class="cls-5" points="161.69 105.05 133.78 132.96 161.69 160.87 161.69 105.05"/>
    <polygon class="cls-7" points="161.69 160.87 133.78 132.96 105.87 160.87 161.69 160.87 161.69 160.87"/>
    <path class="cls-6" d="m89.19,266.74l-44.66-44.66-18.5,18.44c16.14,16.2,38.47,26.22,63.16,26.22Z"/>
    <polygon class="cls-19" points="44.53 222.07 89.19 266.74 89.19 177.55 89.18 177.55 44.53 222.07"/>
    <polygon class="cls-2" points="89.19 186.92 89.19 186.91 89.19 186.91 89.18 186.91 89.19 186.92"/>
    <path class="cls-21" d="m26.03,240.51l18.5-18.44L0,177.55c0,24.58,9.95,46.83,26.03,62.96Z"/>
    <polygon class="cls-33" points="0 177.55 44.53 222.07 89.18 177.55 89.18 177.55 89.19 177.55 89.19 177.55 0 177.55"/>
    <path class="cls-8" d="m241.39,240.66c16.17-16.14,26.17-38.46,26.17-63.12h0l-44.63,44.63,18.46,18.48Z"/>
    <polygon class="cls-10" points="222.93 222.18 267.56 177.55 178.38 177.55 222.93 222.18"/>
    <path class="cls-14" d="m241.39,240.66l-18.46-18.48-44.55,44.56c24.6,0,46.87-9.96,63.01-26.07Z"/>
    <polygon class="cls-4" points="178.38 266.74 222.93 222.18 178.38 177.55 178.38 177.55 178.38 266.74"/>
    <polygon class="cls-20" points="89.19 266.74 178.38 266.74 133.78 222.15 89.19 266.74"/>
    <polygon class="cls-13" points="133.78 222.15 178.38 266.74 178.38 177.55 178.38 177.55 133.78 222.15"/>
    <polygon class="cls-29" points="89.19 266.74 133.78 222.15 89.19 177.55 89.19 266.74"/>
    <polygon class="cls-23" points="89.19 177.55 133.78 222.15 178.38 177.55 89.19 177.55 89.19 177.55"/>
    <path class="cls-28" d="m89.19,177.55l-44.66-44.67-18.5,18.45c16.14,16.2,38.47,26.22,63.16,26.22Z"/>
    <polygon class="cls-17" points="44.53 132.89 89.19 177.55 89.19 88.37 89.18 88.37 44.53 132.89"/>
    <rect class="cls-2" x="89.19" y="109.5" width="0" height="0"/>
    <path class="cls-34" d="m26.03,151.33l18.5-18.45L0,88.36c0,24.58,9.95,46.84,26.03,62.97Z"/>
    <polygon class="cls-30" points="0 88.36 44.53 132.89 89.18 88.37 89.18 88.37 89.19 88.37 89.19 88.36 0 88.36"/>
    <polygon class="cls-27" points="105.87 160.87 133.78 132.96 105.87 105.05 105.87 160.87"/>
    <polygon class="cls-18" points="105.87 105.05 133.78 132.96 161.69 105.05 105.87 105.05 105.87 105.05"/>
  </g>
  <g>
    <g>
      <path class="cls-31" d="m322.17,229.1c0-8.56,5.4-13.8,11.13-13.8,3,0,4.87,1.12,6.9,2.89l-.21-4.23v-9.52h6.15v37.77h-5.08l-.43-2.84h-.21c-1.93,1.93-4.6,3.48-7.43,3.48-6.58,0-10.81-5.08-10.81-13.75Zm17.82,5.73v-12.25c-1.82-1.61-3.58-2.2-5.35-2.2-3.37,0-6.1,3.16-6.1,8.67s2.14,8.72,5.94,8.72c2.03,0,3.74-.91,5.51-2.94Z"/>
      <path class="cls-31" d="m357.58,229.1c0-8.77,5.94-13.8,12.47-13.8s12.52,5.03,12.52,13.8-5.94,13.75-12.52,13.75-12.47-5.03-12.47-13.75Zm18.67,0c0-5.3-2.35-8.77-6.2-8.77s-6.15,3.48-6.15,8.77,2.3,8.72,6.15,8.72,6.2-3.48,6.2-8.72Z"/>
      <path class="cls-31" d="m394.01,215.95h5.08l.43,3.53h.21c2.35-2.3,5.03-4.18,8.61-4.18,5.62,0,8.08,3.8,8.08,10.43v16.48h-6.15v-15.67c0-4.34-1.23-5.94-4.12-5.94-2.3,0-3.8,1.12-5.99,3.26v18.35h-6.15v-26.27Z"/>
      <path class="cls-31" d="m427.71,229.1c0-8.56,5.4-13.8,11.13-13.8,3,0,4.87,1.12,6.9,2.89l-.21-4.23v-9.52h6.15v37.77h-5.08l-.43-2.84h-.21c-1.93,1.93-4.6,3.48-7.43,3.48-6.58,0-10.81-5.08-10.81-13.75Zm17.82,5.73v-12.25c-1.82-1.61-3.58-2.2-5.35-2.2-3.37,0-6.1,3.16-6.1,8.67s2.14,8.72,5.94,8.72c2.03,0,3.74-.91,5.51-2.94Z"/>
      <path class="cls-31" d="m463.11,229.1c0-8.56,5.94-13.8,12.09-13.8,7.12,0,10.86,5.14,10.86,12.47,0,1.17-.11,2.35-.27,2.99h-16.69c.53,4.66,3.53,7.33,7.75,7.33,2.25,0,4.18-.7,6.1-1.93l2.09,3.85c-2.51,1.66-5.67,2.83-8.99,2.83-7.27,0-12.95-5.08-12.95-13.75Zm17.6-2.51c0-4.06-1.77-6.53-5.35-6.53-3.1,0-5.78,2.3-6.31,6.53h11.66Z"/>
      <path class="cls-31" d="m514.25,233.33v-12.52h-3.74v-4.6l4.06-.27.75-7.17h5.14v7.17h6.69v4.86h-6.69v12.52c0,3.1,1.18,4.6,3.69,4.6.91,0,1.98-.27,2.73-.59l1.07,4.55c-1.45.48-3.26.96-5.35.96-6.1,0-8.35-3.85-8.35-9.52Z"/>
      <path class="cls-31" d="m535.43,229.1c0-8.77,5.94-13.8,12.47-13.8s12.52,5.03,12.52,13.8-5.94,13.75-12.52,13.75-12.47-5.03-12.47-13.75Zm18.67,0c0-5.3-2.35-8.77-6.2-8.77s-6.15,3.48-6.15,8.77,2.3,8.72,6.15,8.72,6.2-3.48,6.2-8.72Z"/>
      <path class="cls-31" d="m570.26,229.1c0-8.56,5.4-13.8,11.13-13.8,3,0,4.87,1.12,6.9,2.89l-.21-4.23v-9.52h6.15v37.77h-5.08l-.43-2.84h-.21c-1.93,1.93-4.6,3.48-7.43,3.48-6.58,0-10.81-5.08-10.81-13.75Zm17.82,5.73v-12.25c-1.82-1.61-3.58-2.2-5.35-2.2-3.37,0-6.1,3.16-6.1,8.67s2.14,8.72,5.94,8.72c2.03,0,3.74-.91,5.51-2.94Z"/>
      <path class="cls-31" d="m605.67,229.1c0-8.77,5.94-13.8,12.47-13.8s12.52,5.03,12.52,13.8-5.94,13.75-12.52,13.75-12.47-5.03-12.47-13.75Zm18.67,0c0-5.3-2.35-8.77-6.2-8.77s-6.15,3.48-6.15,8.77,2.3,8.72,6.15,8.72,6.2-3.48,6.2-8.72Z"/>
      <path class="cls-31" d="m655.52,239.21l2.89-3.96c2.36,1.82,4.6,2.94,7.28,2.94,2.83,0,4.17-1.34,4.17-3.16,0-2.19-2.84-3.16-5.62-4.23-3.48-1.28-7.38-3.26-7.38-7.65,0-4.6,3.69-7.87,9.57-7.87,3.64,0,6.58,1.5,8.72,3.16l-2.83,3.74c-1.82-1.33-3.69-2.25-5.78-2.25-2.62,0-3.85,1.23-3.85,2.89,0,2.09,2.62,2.89,5.46,3.9,3.58,1.34,7.55,3.05,7.55,7.97,0,4.49-3.59,8.13-10.22,8.13-3.59,0-7.39-1.55-9.95-3.64Z"/>
      <path class="cls-31" d="m684.84,229.1c0-8.56,5.94-13.8,12.09-13.8,7.12,0,10.86,5.14,10.86,12.47,0,1.17-.11,2.35-.27,2.99h-16.69c.53,4.66,3.53,7.33,7.75,7.33,2.25,0,4.18-.7,6.1-1.93l2.09,3.85c-2.51,1.66-5.67,2.83-8.99,2.83-7.27,0-12.95-5.08-12.95-13.75Zm17.6-2.51c0-4.06-1.77-6.53-5.35-6.53-3.1,0-5.78,2.3-6.31,6.53h11.66Z"/>
      <path class="cls-31" d="m733.35,229.1c0-8.77,6.15-13.8,13.16-13.8,3.37,0,5.78,1.28,7.7,2.94l-2.99,4.01c-1.39-1.23-2.73-1.93-4.39-1.93-4.22,0-7.17,3.48-7.17,8.77s2.89,8.72,7.01,8.72c2.03,0,3.9-1.01,5.4-2.25l2.52,4.07c-2.46,2.14-5.57,3.21-8.56,3.21-7.17,0-12.68-5.03-12.68-13.75Z"/>
      <path class="cls-31" d="m762.13,229.1c0-8.77,5.94-13.8,12.47-13.8s12.52,5.03,12.52,13.8-5.94,13.75-12.52,13.75-12.47-5.03-12.47-13.75Zm18.67,0c0-5.3-2.35-8.77-6.2-8.77s-6.15,3.48-6.15,8.77,2.3,8.72,6.15,8.72,6.2-3.48,6.2-8.72Z"/>
      <path class="cls-31" d="m798.56,215.95h5.08l.43,3.53h.22c2.35-2.3,5.03-4.18,8.61-4.18,5.62,0,8.08,3.8,8.08,10.43v16.48h-6.15v-15.67c0-4.34-1.23-5.94-4.12-5.94-2.3,0-3.8,1.12-5.99,3.26v18.35h-6.15v-26.27Z"/>
      <path class="cls-31" d="m832.15,229.1c0-8.56,5.94-13.8,12.09-13.8,7.12,0,10.86,5.14,10.86,12.47,0,1.17-.11,2.35-.27,2.99h-16.69c.53,4.66,3.53,7.33,7.75,7.33,2.25,0,4.18-.7,6.1-1.93l2.09,3.85c-2.51,1.66-5.67,2.83-8.99,2.83-7.27,0-12.95-5.08-12.95-13.75Zm17.6-2.51c0-4.06-1.77-6.53-5.35-6.53-3.1,0-5.78,2.3-6.31,6.53h11.66Z"/>
      <path class="cls-31" d="m864.62,229.1c0-8.77,6.15-13.8,13.16-13.8,3.37,0,5.78,1.28,7.7,2.94l-2.99,4.01c-1.39-1.23-2.73-1.93-4.39-1.93-4.22,0-7.17,3.48-7.17,8.77s2.89,8.72,7.01,8.72c2.03,0,3.9-1.01,5.4-2.25l2.52,4.07c-2.46,2.14-5.57,3.21-8.56,3.21-7.17,0-12.68-5.03-12.68-13.75Z"/>
      <path class="cls-31" d="m896.77,233.33v-12.52h-3.74v-4.6l4.06-.27.75-7.17h5.14v7.17h6.69v4.86h-6.69v12.52c0,3.1,1.18,4.6,3.69,4.6.91,0,1.98-.27,2.73-.59l1.07,4.55c-1.45.48-3.26.96-5.35.96-6.1,0-8.35-3.85-8.35-9.52Z"/>
      <path class="cls-31" d="m918,235.15c0-5.62,4.66-8.56,15.46-9.74-.11-2.78-1.23-5.14-4.82-5.14-2.57,0-5.03,1.18-7.39,2.57l-2.25-4.12c2.89-1.82,6.63-3.42,10.81-3.42,6.53,0,9.79,4.02,9.79,11.34v15.57h-5.08l-.43-2.89h-.21c-2.36,1.98-5.03,3.53-8.13,3.53-4.6,0-7.76-3.1-7.76-7.7Zm15.46,0v-5.89c-7.17.91-9.52,2.78-9.52,5.41,0,2.35,1.61,3.37,3.8,3.37s3.74-1.07,5.73-2.89Z"/>
    </g>
    <g>
      <g>
        <path class="cls-31" d="m346.64,150.31c.28,5.83,2.36,10,6.25,12.5,3.61,2.78,9.31,4.17,17.08,4.17,11.94,0,17.92-3.61,17.92-10.84,0-5.83-9.72-10.42-29.17-13.75-25-4.45-37.64-15.56-37.92-33.34,0-11.11,4.03-20,12.08-26.67,7.78-6.11,18.75-9.31,32.92-9.59,14.44,0,25.97,3.2,34.59,9.59,8.33,6.67,12.78,15.83,13.33,27.5h-17.92c-6.67-.28-10.83-2.64-12.5-7.09-1.94-5-7.64-7.5-17.08-7.5-11.11,0-16.67,2.91-16.67,8.75s7.36,10.14,22.08,12.92c19.17,3.89,31.81,8.75,37.92,14.58,5.28,5.55,7.92,12.22,7.92,20,0,12.5-4.44,21.95-13.33,28.34-8.61,6.39-21.39,9.58-38.34,9.58-15.83,0-27.64-3.33-35.42-10-8.61-6.39-12.92-16.11-12.92-29.16h29.17Z"/>
        <path class="cls-31" d="m531.65,131.56c0,38.89-17.08,58.34-51.25,58.34s-51.25-19.45-51.25-58.34,17.08-58.76,51.25-58.76,51.25,19.59,51.25,58.76Zm-73.75,0c.28,21.95,7.64,32.92,22.08,32.92s21.81-11.25,22.09-33.75c0-21.95-7.22-32.92-21.67-32.92s-22.5,11.25-22.5,33.75Z"/>
        <path class="cls-31" d="m593.33,97.8c-12.5,0-18.89,5.84-19.17,17.51v72.09h-28.75v-66.26c0-32.22,16.11-48.34,48.34-48.34,14.45,0,25.7,3.2,33.75,9.59,8.06-6.11,19.31-9.17,33.75-9.17,32.22,0,48.2,16.11,47.92,48.34v66.25h-14.58c-9.45-.55-14.17-5.28-14.17-14.16v-57.92c-.55-11.67-7.08-17.5-19.59-17.5s-18.89,5.83-19.16,17.5v71.67h-28.75v-72.09c-.55-11.67-7.09-17.51-19.58-17.51Z"/>
        <path class="cls-31" d="m821.28,164.99c4.12-8.82,6.23-19.92,6.23-33.43,0-39.17-17.08-58.76-51.26-58.76s-51.25,19.59-51.25,58.76,17.09,58.34,51.25,58.34c19.15,0,32.92-6.11,41.34-18.32.82-2.4,2.06-4.64,3.68-6.58Zm-45.44-.52c-14.45,0-21.81-10.97-22.08-32.92,0-22.5,7.5-33.75,22.5-33.75s21.67,10.97,21.67,32.92c-.28,22.5-7.64,33.75-22.08,33.75Z"/>
        <path class="cls-31" d="m879.19,142.39c19.44,3.33,29.16,7.92,29.16,13.75,0,.75-.1,1.44-.23,2.11h29.3c.31-2.14.52-4.34.52-6.69,0-7.78-2.64-14.45-7.92-20-6.11-5.83-18.75-10.69-37.92-14.58-14.72-2.78-22.09-7.09-22.09-12.92s5.56-8.75,16.67-8.75c9.45,0,15.14,2.5,17.09,7.5,1.67,4.45,5.83,6.81,12.5,7.09h17.92c-.56-11.67-5-20.83-13.33-27.5-8.61-6.39-20.14-9.59-34.59-9.59-14.17.28-25.14,3.47-32.92,9.59-8.05,6.67-12.08,15.56-12.08,26.67.28,17.78,12.92,28.89,37.92,33.34Z"/>
        <path class="cls-31" d="m869.17,158.25c-1.2-2.18-1.92-4.8-2.07-7.94h-29.17c0,2.81.24,5.44.64,7.94h30.6Z"/>
      </g>
      <g id="TMsZzf">
        <g>
          <path class="cls-31" d="m983.61,92.41c-.05,10.61-8.69,19.17-19.3,19.09-10.48-.08-19.18-8.7-18.98-19.52.19-10.47,8.97-18.96,19.55-18.75,10.19.2,18.75,8.66,18.74,19.18Zm-19.11-16c-8.76,0-15.72,6.92-15.97,15.52-.27,9.25,7.23,16.18,15.48,16.37,9.13.22,16.24-7.03,16.4-15.64.16-8.8-6.92-16.27-15.92-16.25Z"/>
          <path class="cls-31" d="m968.94,92.85c.2.17.4.34.61.51.87.72,1.51,1.62,1.99,2.64.74,1.6,1.14,3.3,1.47,5.02.11.58.2,1.16.31,1.74.04.22,0,.31-.24.31-.85,0-1.69,0-2.54,0-.22,0-.24-.13-.28-.3-.29-1.32-.53-2.66-.89-3.96-.35-1.25-.88-2.44-1.74-3.45-.8-.95-1.82-1.48-3.08-1.5-1.21-.02-2.42,0-3.63-.01-.24,0-.31.07-.31.32,0,2.82,0,5.64,0,8.46,0,.41-.01.42-.44.43-.77,0-1.53,0-2.3.01-.27,0-.34-.11-.34-.35.01-1.8.02-3.6.02-5.4,0-3.45,0-6.9,0-10.35,0-1.49.02-2.99.02-4.48,0-.19.03-.3.26-.34,2.2-.36,4.42-.59,6.66-.52,1.61.05,3.19.3,4.66,1.01,1.4.67,2.59,1.6,3.13,3.12.77,2.19.27,4.74-1.98,6.28-.43.29-.89.53-1.35.81Zm-8.33-4.99s0,0,0,0c0,1.09,0,2.18,0,3.27,0,.26.06.36.34.35.85-.02,1.71-.01,2.56,0,.98,0,1.96,0,2.93-.18,1.7-.31,3.27-1.28,3.18-3.63-.06-1.41-.79-2.5-2.14-3.01-.83-.31-1.68-.5-2.56-.5-1.33,0-2.67.03-4,.05-.24,0-.31.11-.31.35.01,1.1,0,2.2,0,3.3Z"/>
        </g>
      </g>
      <g>
        <path class="cls-31" d="m839.38,165.13c0-1.8,1.37-2.72,4.1-2.77h24.6v4.49h-20.72v5.62h15.49v1.72c.07,1.8-1.33,2.7-4.21,2.7h-11.27v6.74h20.72v4.79h-28.69v-23.28Z"/>
        <path class="cls-31" d="m872.05,165.13c0-.75.4-1.4,1.19-1.95.8-.55,1.77-.83,2.91-.83h15.03c4.25,0,7.48.6,9.68,1.8,2.05,1.2,3.07,3.07,3.07,5.62,0,1.65-.49,2.97-1.48,3.97-1.06,1.1-2.54,1.82-4.44,2.17,1.67.4,2.92,1,3.76,1.79.68.9,1.1,2.2,1.25,3.9l.34,5.09c.08.8.49,1.37,1.25,1.72h-8.88c-.38-.5-.61-1.02-.68-1.57-.15-.4-.27-1.87-.34-4.42-.15-1.65-.61-2.74-1.36-3.29-.84-.55-2.36-.83-4.56-.83h-8.65v10.11h-8.08v-23.28Zm17.65,8.61c1.97,0,3.53-.28,4.67-.83.91-.6,1.37-1.47,1.37-2.62s-.46-2-1.37-2.55c-.91-.6-2.32-.9-4.21-.9h-10.02v6.89h9.57Z"/>
        <path class="cls-31" d="m916.57,188.41h-8.08v-23.28c0-.75.4-1.4,1.19-1.95.8-.55,1.77-.83,2.91-.83h13.43c4.18,0,7.33.7,9.45,2.1,2.2,1.45,3.3,3.54,3.3,6.29,0,2.59-1.06,4.66-3.19,6.21-2.13,1.45-5.12,2.17-8.99,2.17h-10.02v9.28Zm7.97-14c4.1.05,6.15-1.2,6.15-3.74s-1.9-3.82-5.69-3.82h-8.31v7.56h7.86Z"/>
      </g>
    </g>
  </g>
</svg>